# xmcd
#
# Track frame offsets: 
#        150
#        19425
#        38996
#        56843
#        77600
#        99160
#        117421
#        135957
#        154866
#        179961
#
# Disc length: 2606 seconds
#
# Revision: 0
# Processed by: cddbd v1.5.2PL0 Copyright (c) Steve Scherf et al.
# Submitted via: ExactAudioCopy v0.95b4
#
DISCID=840a2c0a
DTITLE=Zack Walther and The Cronkites - Ambition
DYEAR=2009
DGENRE=Country
TTITLE0=Georgia Cane
TTITLE1=Tumbleweed
TTITLE2=Down Easy
TTITLE3=Without One Sound
TTITLE4=Our Corner
TTITLE5=So Hard
TTITLE6=Mountain Laurel Bloom
TTITLE7=Just Say When
TTITLE8=Money Tree (Everything I Need)
TTITLE9=Pull The Pin
EXTD=
EXTT0=
EXTT1=
EXTT2=
EXTT3=
EXTT4=
EXTT5=
EXTT6=
EXTT7=
EXTT8=
EXTT9=
PLAYORDER=
